<mxfile host="65bd71144e">
    <diagram id="Z98wqnb_WYH-pFjYI9Wy" name="Page-1">
        <mxGraphModel dx="804" dy="957" grid="1" gridSize="11" guides="1" tooltips="1" connect="1" arrows="1" fold="1" page="1" pageScale="1" pageWidth="850" pageHeight="1100" math="0" shadow="0">
            <root>
                <mxCell id="0"/>
                <mxCell id="1" parent="0"/>
                <mxCell id="34" style="edgeStyle=none;html=1;exitX=0;exitY=1;exitDx=0;exitDy=0;fontSize=21;" edge="1" parent="1" source="39" target="16">
                    <mxGeometry relative="1" as="geometry">
                        <mxPoint x="153.9999999999999" y="146" as="sourcePoint"/>
                        <mxPoint x="143" y="319" as="targetPoint"/>
                    </mxGeometry>
                </mxCell>
                <mxCell id="16" value="&lt;h2 style=&quot;font-size: 21px;&quot;&gt;&lt;ul&gt;&lt;li&gt;pages&lt;/li&gt;&lt;/ul&gt;&lt;ul&gt;&lt;li&gt;widgets&lt;/li&gt;&lt;/ul&gt;&lt;ul&gt;&lt;li&gt;features&lt;/li&gt;&lt;/ul&gt;&lt;ul&gt;&lt;li&gt;entities&lt;/li&gt;&lt;/ul&gt;&lt;ul&gt;&lt;li&gt;shared&lt;/li&gt;&lt;/ul&gt;&lt;/h2&gt;" style="text;strokeColor=none;fillColor=none;html=1;whiteSpace=wrap;verticalAlign=middle;overflow=hidden;" vertex="1" parent="1">
                    <mxGeometry y="253" width="140" height="277" as="geometry"/>
                </mxCell>
                <mxCell id="39" value="&lt;table border=&quot;1&quot; width=&quot;100%&quot; height=&quot;100%&quot; cellpadding=&quot;4&quot; style=&quot;width:100%;height:100%;border-collapse:collapse;&quot;&gt;&lt;tbody&gt;&lt;tr&gt;&lt;th&gt;&lt;b&gt;Pages&lt;/b&gt;&lt;/th&gt;&lt;/tr&gt;&lt;tr&gt;&lt;td&gt;&lt;span style=&quot;background-color: initial;&quot;&gt;Estimates&lt;br&gt;&lt;/span&gt;History&lt;br&gt;Reports&lt;br&gt;Profile&lt;br&gt;Sign-In&lt;/td&gt;&lt;/tr&gt;&lt;/tbody&gt;&lt;/table&gt;" style="text;html=1;whiteSpace=wrap;strokeColor=none;fillColor=none;overflow=fill;fontSize=21;align=left;" vertex="1" parent="1">
                    <mxGeometry x="132" y="11" width="160" height="176" as="geometry"/>
                </mxCell>
                <mxCell id="41" style="edgeStyle=none;html=1;exitX=0;exitY=0.5;exitDx=0;exitDy=0;fontSize=21;" edge="1" parent="1" source="40" target="16">
                    <mxGeometry relative="1" as="geometry"/>
                </mxCell>
                <mxCell id="40" value="&lt;table border=&quot;1&quot; width=&quot;100%&quot; height=&quot;100%&quot; cellpadding=&quot;4&quot; style=&quot;width:100%;height:100%;border-collapse:collapse;&quot;&gt;&lt;tbody&gt;&lt;tr&gt;&lt;th&gt;&lt;b&gt;Widgets&lt;/b&gt;&lt;/th&gt;&lt;/tr&gt;&lt;tr&gt;&lt;td&gt;&lt;span style=&quot;background-color: initial;&quot;&gt;EstimateForm&lt;br&gt;&lt;/span&gt;HistoryForm&lt;br&gt;ReportForm&lt;br&gt;CompanyProfofileForm&lt;br&gt;Navbar&lt;/td&gt;&lt;/tr&gt;&lt;/tbody&gt;&lt;/table&gt;" style="text;html=1;whiteSpace=wrap;strokeColor=none;fillColor=none;overflow=fill;fontSize=21;align=left;" vertex="1" parent="1">
                    <mxGeometry x="253" y="22" width="242" height="140" as="geometry"/>
                </mxCell>
                <mxCell id="48" style="edgeStyle=none;html=1;exitX=0;exitY=0.5;exitDx=0;exitDy=0;entryX=1;entryY=0.5;entryDx=0;entryDy=0;fontSize=21;" edge="1" parent="1" source="42" target="16">
                    <mxGeometry relative="1" as="geometry"/>
                </mxCell>
                <mxCell id="42" value="&lt;table border=&quot;1&quot; width=&quot;100%&quot; height=&quot;100%&quot; cellpadding=&quot;4&quot; style=&quot;width:100%;height:100%;border-collapse:collapse;&quot;&gt;&lt;tbody&gt;&lt;tr&gt;&lt;th&gt;&lt;b&gt;Features&lt;/b&gt;&lt;/th&gt;&lt;/tr&gt;&lt;tr&gt;&lt;td&gt;calculateEstimate&lt;br&gt;estimateSearch&lt;br&gt;filterHistory&lt;br&gt;deleteWorker&lt;br&gt;createReport&lt;br&gt;ReportApproved&lt;br&gt;ReportLost&lt;br&gt;addOverhead&lt;br&gt;addProfit&lt;br&gt;addMaterialTax&lt;br&gt;addHourlyRate&lt;br&gt;addLogo&lt;br&gt;addComanyName&lt;/td&gt;&lt;/tr&gt;&lt;/tbody&gt;&lt;/table&gt;" style="text;html=1;whiteSpace=wrap;strokeColor=none;fillColor=none;overflow=fill;fontSize=21;align=left;" vertex="1" parent="1">
                    <mxGeometry x="506" y="11" width="198" height="418" as="geometry"/>
                </mxCell>
                <mxCell id="49" style="edgeStyle=none;html=1;fontSize=21;" edge="1" parent="1" source="45">
                    <mxGeometry relative="1" as="geometry">
                        <mxPoint x="153.9999999999999" y="462" as="targetPoint"/>
                    </mxGeometry>
                </mxCell>
                <mxCell id="45" value="&lt;table border=&quot;1&quot; width=&quot;100%&quot; height=&quot;100%&quot; cellpadding=&quot;4&quot; style=&quot;width:100%;height:100%;border-collapse:collapse;&quot;&gt;&lt;tbody&gt;&lt;tr&gt;&lt;th&gt;&lt;b&gt;Entities&lt;/b&gt;&lt;/th&gt;&lt;/tr&gt;&lt;tr&gt;&lt;td&gt;&lt;span style=&quot;text-align: center;&quot;&gt;Account cards&lt;/span&gt;&lt;br style=&quot;text-align: center;&quot;&gt;&lt;span style=&quot;text-align: center;&quot;&gt;Settings cards&lt;/span&gt;&lt;br style=&quot;text-align: center;&quot;&gt;&lt;span style=&quot;text-align: center;&quot;&gt;Esimates cards&lt;/span&gt;&lt;br style=&quot;text-align: center;&quot;&gt;&lt;span style=&quot;text-align: center;&quot;&gt;History cards&lt;/span&gt;&lt;br style=&quot;text-align: center;&quot;&gt;&lt;span style=&quot;text-align: center;&quot;&gt;Report cards&amp;nbsp;&lt;/span&gt;&lt;br style=&quot;text-align: center;&quot;&gt;&lt;span style=&quot;text-align: center;&quot;&gt;Estimate Cards&lt;/span&gt;&lt;br&gt;&lt;/td&gt;&lt;/tr&gt;&lt;/tbody&gt;&lt;/table&gt;" style="text;html=1;whiteSpace=wrap;strokeColor=none;fillColor=none;overflow=fill;fontSize=21;align=left;" vertex="1" parent="1">
                    <mxGeometry x="495" y="429" width="198" height="418" as="geometry"/>
                </mxCell>
            </root>
        </mxGraphModel>
    </diagram>
</mxfile>